<svg xmlns="http://www.w3.org/2000/svg" xmlns:xlink="http://www.w3.org/1999/xlink" width="335" zoomAndPan="magnify" viewBox="0 0 251.25 180.749999" height="241" preserveAspectRatio="xMidYMid meet" version="1.0"><defs><clipPath id="d0a973b816"><path d="M 18.339844 0.144531 L 250.148438 0.144531 L 250.148438 169.140625 L 18.339844 169.140625 Z M 18.339844 0.144531 " clip-rule="nonzero"/></clipPath><clipPath id="09aa686f3d"><path d="M 0 105 L 75 105 L 75 180.355469 L 0 180.355469 Z M 0 105 " clip-rule="nonzero"/></clipPath><clipPath id="f27f28aba0"><path d="M 0 13.289062 L 61.652344 13.289062 L 61.652344 74.941406 L 0 74.941406 Z M 0 13.289062 " clip-rule="nonzero"/></clipPath><clipPath id="5e849155b5"><path d="M 30.828125 13.289062 C 13.800781 13.289062 0 27.089844 0 44.113281 C 0 61.140625 13.800781 74.941406 30.828125 74.941406 C 47.851562 74.941406 61.652344 61.140625 61.652344 44.113281 C 61.652344 27.089844 47.851562 13.289062 30.828125 13.289062 Z M 30.828125 13.289062 " clip-rule="nonzero"/></clipPath><clipPath id="d4a442482c"><path d="M 0 0.289062 L 61.652344 0.289062 L 61.652344 61.941406 L 0 61.941406 Z M 0 0.289062 " clip-rule="nonzero"/></clipPath><clipPath id="aed1629f28"><path d="M 30.828125 0.289062 C 13.800781 0.289062 0 14.089844 0 31.113281 C 0 48.140625 13.800781 61.941406 30.828125 61.941406 C 47.851562 61.941406 61.652344 48.140625 61.652344 31.113281 C 61.652344 14.089844 47.851562 0.289062 30.828125 0.289062 Z M 30.828125 0.289062 " clip-rule="nonzero"/></clipPath><clipPath id="963dedea06"><rect x="0" width="62" y="0" height="62"/></clipPath><clipPath id="64db044a5b"><path d="M 0 13.289062 L 61.597656 13.289062 L 61.597656 74.882812 L 0 74.882812 Z M 0 13.289062 " clip-rule="nonzero"/></clipPath><clipPath id="30681e15fa"><path d="M 30.824219 13.289062 C 13.800781 13.289062 0 27.089844 0 44.113281 C 0 61.136719 13.800781 74.941406 30.824219 74.941406 C 47.851562 74.941406 61.652344 61.136719 61.652344 44.113281 C 61.652344 27.089844 47.851562 13.289062 30.824219 13.289062 Z M 30.824219 13.289062 " clip-rule="nonzero"/></clipPath><clipPath id="ec64e23b7e"><path d="M 24.527344 41.101562 L 35.929688 41.101562 L 35.929688 64.175781 L 24.527344 64.175781 Z M 24.527344 41.101562 " clip-rule="nonzero"/></clipPath><clipPath id="3df1f80de7"><path d="M 35.929688 46.800781 L 35.929688 58.464844 C 35.929688 59.976562 35.328125 61.425781 34.261719 62.496094 C 33.191406 63.566406 31.742188 64.164062 30.226562 64.164062 C 28.714844 64.164062 27.265625 63.566406 26.195312 62.496094 C 25.128906 61.425781 24.527344 59.976562 24.527344 58.464844 L 24.527344 46.800781 C 24.527344 45.289062 25.128906 43.839844 26.195312 42.769531 C 27.265625 41.699219 28.714844 41.101562 30.226562 41.101562 C 31.742188 41.101562 33.191406 41.699219 34.261719 42.769531 C 35.328125 43.839844 35.929688 45.289062 35.929688 46.800781 Z M 35.929688 46.800781 " clip-rule="nonzero"/></clipPath><clipPath id="2e0c2b16ed"><path d="M 0.527344 0.101562 L 11.929688 0.101562 L 11.929688 23.175781 L 0.527344 23.175781 Z M 0.527344 0.101562 " clip-rule="nonzero"/></clipPath><clipPath id="1ceb76ce3a"><path d="M 11.929688 5.800781 L 11.929688 17.464844 C 11.929688 18.976562 11.328125 20.425781 10.261719 21.496094 C 9.191406 22.566406 7.742188 23.164062 6.226562 23.164062 C 4.714844 23.164062 3.265625 22.566406 2.195312 21.496094 C 1.128906 20.425781 0.527344 18.976562 0.527344 17.464844 L 0.527344 5.800781 C 0.527344 4.289062 1.128906 2.839844 2.195312 1.769531 C 3.265625 0.699219 4.714844 0.101562 6.226562 0.101562 C 7.742188 0.101562 9.191406 0.699219 10.261719 1.769531 C 11.328125 2.839844 11.929688 4.289062 11.929688 5.800781 Z M 11.929688 5.800781 " clip-rule="nonzero"/></clipPath><clipPath id="22e7f88c38"><rect x="0" width="12" y="0" height="24"/></clipPath><clipPath id="92aa65cd0e"><path d="M 11.90625 40.105469 L 48.523438 40.105469 L 48.523438 51.507812 L 11.90625 51.507812 Z M 11.90625 40.105469 " clip-rule="nonzero"/></clipPath><clipPath id="215ea07246"><path d="M 42.820312 51.507812 L 17.628906 51.507812 C 16.117188 51.507812 14.667969 50.90625 13.597656 49.835938 C 12.527344 48.769531 11.929688 47.316406 11.929688 45.804688 C 11.929688 44.292969 12.527344 42.84375 13.597656 41.773438 C 14.667969 40.703125 16.117188 40.105469 17.628906 40.105469 L 42.820312 40.105469 C 44.332031 40.105469 45.785156 40.703125 46.851562 41.773438 C 47.921875 42.84375 48.523438 44.292969 48.523438 45.804688 C 48.523438 47.316406 47.921875 48.769531 46.851562 49.835938 C 45.785156 50.90625 44.332031 51.507812 42.820312 51.507812 Z M 42.820312 51.507812 " clip-rule="nonzero"/></clipPath><clipPath id="5e0f82010a"><path d="M 0.90625 0.105469 L 37.523438 0.105469 L 37.523438 11.507812 L 0.90625 11.507812 Z M 0.90625 0.105469 " clip-rule="nonzero"/></clipPath><clipPath id="b1b50dfcb8"><path d="M 31.820312 11.507812 L 6.628906 11.507812 C 5.117188 11.507812 3.667969 10.90625 2.597656 9.835938 C 1.527344 8.769531 0.929688 7.316406 0.929688 5.804688 C 0.929688 4.292969 1.527344 2.84375 2.597656 1.773438 C 3.667969 0.703125 5.117188 0.105469 6.628906 0.105469 L 31.820312 0.105469 C 33.332031 0.105469 34.785156 0.703125 35.851562 1.773438 C 36.921875 2.84375 37.523438 4.292969 37.523438 5.804688 C 37.523438 7.316406 36.921875 8.769531 35.851562 9.835938 C 34.785156 10.90625 33.332031 11.507812 31.820312 11.507812 Z M 31.820312 11.507812 " clip-rule="nonzero"/></clipPath><clipPath id="5d66a22602"><rect x="0" width="38" y="0" height="12"/></clipPath><clipPath id="db1a6ba273"><path d="M 24.328125 27.449219 L 36.128906 27.449219 L 36.128906 39.25 L 24.328125 39.25 Z M 24.328125 27.449219 " clip-rule="nonzero"/></clipPath><clipPath id="5cffea4427"><path d="M 30.230469 27.449219 C 26.96875 27.449219 24.328125 30.089844 24.328125 33.347656 C 24.328125 36.605469 26.96875 39.25 30.230469 39.25 C 33.488281 39.25 36.128906 36.605469 36.128906 33.347656 C 36.128906 30.089844 33.488281 27.449219 30.230469 27.449219 Z M 30.230469 27.449219 " clip-rule="nonzero"/></clipPath><clipPath id="ad7c675864"><path d="M 0.328125 0.449219 L 12.128906 0.449219 L 12.128906 12.25 L 0.328125 12.25 Z M 0.328125 0.449219 " clip-rule="nonzero"/></clipPath><clipPath id="2d0671a746"><path d="M 6.230469 0.449219 C 2.96875 0.449219 0.328125 3.089844 0.328125 6.347656 C 0.328125 9.605469 2.96875 12.25 6.230469 12.25 C 9.488281 12.25 12.128906 9.605469 12.128906 6.347656 C 12.128906 3.089844 9.488281 0.449219 6.230469 0.449219 Z M 6.230469 0.449219 " clip-rule="nonzero"/></clipPath><clipPath id="958d19e5fc"><rect x="0" width="13" y="0" height="13"/></clipPath><clipPath id="e5a869da05"><rect x="0" width="75" y="0" height="76"/></clipPath></defs><g clip-path="url(#d0a973b816)"><path fill="#100f0d" d="M 245.035156 163.941406 L 148.089844 163.941406 C 181.414062 154.058594 232.222656 155.949219 232.804688 155.972656 C 233.441406 155.988281 234.171875 155.742188 234.679688 155.257812 C 235.179688 154.773438 235.460938 154.113281 235.460938 153.414062 L 235.460938 29.644531 L 245.035156 29.820312 Z M 23.453125 163.941406 L 23.453125 29.820312 L 33.019531 29.644531 L 33.019531 153.414062 C 33.019531 154.113281 33.304688 154.773438 33.800781 155.257812 C 34.308594 155.742188 34.992188 155.988281 35.675781 155.972656 C 36.242188 155.933594 87.058594 154.058594 120.398438 163.941406 Z M 38.128906 20.253906 L 49.636719 20.253906 L 49.636719 140.867188 C 49.636719 142.28125 50.78125 143.425781 52.195312 143.425781 C 102.960938 143.425781 121.53125 154.34375 128.167969 161.136719 C 98.125 150.019531 50.007812 150.457031 38.128906 150.78125 Z M 54.75 5.351562 C 122.382812 5.847656 130.980469 26.105469 131.6875 28.230469 L 131.6875 157.421875 C 123.859375 149.539062 104.125 138.679688 54.75 138.320312 Z M 213.738281 5.351562 L 213.738281 138.320312 C 164.363281 138.679688 144.628906 149.539062 136.800781 157.421875 L 136.800781 28.230469 C 137.503906 26.113281 146.09375 5.847656 213.738281 5.351562 Z M 230.347656 20.253906 L 230.347656 27.027344 C 230.347656 27.035156 230.347656 27.050781 230.347656 27.058594 L 230.347656 150.78125 C 218.433594 150.460938 170.375 150.019531 140.339844 161.125 C 147.003906 154.3125 165.585938 143.425781 216.292969 143.425781 C 217.707031 143.425781 218.851562 142.28125 218.851562 140.867188 L 218.851562 20.253906 Z M 247.636719 24.753906 L 235.460938 24.53125 L 235.460938 17.699219 C 235.460938 16.285156 234.316406 15.140625 232.90625 15.140625 L 218.851562 15.140625 L 218.851562 2.785156 C 218.851562 1.371094 217.707031 0.226562 216.292969 0.226562 C 158.269531 0.226562 139.945312 14.449219 134.242188 22.335938 C 128.539062 14.449219 110.210938 0.226562 52.195312 0.226562 C 50.78125 0.226562 49.636719 1.371094 49.636719 2.785156 L 49.636719 15.140625 L 35.574219 15.140625 C 34.164062 15.140625 33.019531 16.285156 33.019531 17.699219 L 33.019531 24.53125 L 20.851562 24.753906 C 19.464844 24.785156 18.339844 25.921875 18.339844 27.3125 L 18.339844 166.5 C 18.339844 167.910156 19.484375 169.054688 20.898438 169.054688 L 247.589844 169.054688 C 249.003906 169.054688 250.148438 167.910156 250.148438 166.5 L 250.148438 27.3125 C 250.148438 25.921875 249.023438 24.785156 247.636719 24.753906 " fill-opacity="1" fill-rule="nonzero"/></g><g clip-path="url(#09aa686f3d)"><g transform="matrix(1, 0, 0, 1, 0, 105)"><g clip-path="url(#e5a869da05)"><g clip-path="url(#f27f28aba0)"><g clip-path="url(#5e849155b5)"><g transform="matrix(1, 0, 0, 1, 0, 13)"><g clip-path="url(#963dedea06)"><g clip-path="url(#d4a442482c)"><g clip-path="url(#aed1629f28)"><path fill="#ffffff" d="M 0 0.289062 L 61.652344 0.289062 L 61.652344 61.941406 L 0 61.941406 Z M 0 0.289062 " fill-opacity="1" fill-rule="nonzero"/></g></g></g></g></g></g><g clip-path="url(#64db044a5b)"><g clip-path="url(#30681e15fa)"><path stroke-linecap="butt" transform="matrix(0.240609, 0, 0, 0.240609, 0.000000000000028091, 13.287163)" fill="none" stroke-linejoin="miter" d="M 128.109116 0.00789491 C 57.357687 0.00789491 -0.000000000000116751 57.365582 -0.000000000000116751 128.117011 C -0.000000000000116751 198.86844 57.357687 256.242361 128.109116 256.242361 C 198.87678 256.242361 256.234466 198.86844 256.234466 128.117011 C 256.234466 57.365582 198.87678 0.00789491 128.109116 0.00789491 Z M 128.109116 0.00789491 " stroke="#000000" stroke-width="24.862497" stroke-opacity="1" stroke-miterlimit="4"/></g></g><g clip-path="url(#ec64e23b7e)"><g clip-path="url(#3df1f80de7)"><g transform="matrix(1, 0, 0, 1, 24, 41)"><g clip-path="url(#22e7f88c38)"><g clip-path="url(#2e0c2b16ed)"><g clip-path="url(#1ceb76ce3a)"><path fill="#ffd230" d="M 11.929688 0.101562 L 11.929688 23.175781 L 0.527344 23.175781 L 0.527344 0.101562 Z M 11.929688 0.101562 " fill-opacity="1" fill-rule="nonzero"/></g></g></g></g></g></g><g clip-path="url(#92aa65cd0e)"><g clip-path="url(#215ea07246)"><g transform="matrix(1, 0, 0, 1, 11, 40)"><g clip-path="url(#5d66a22602)"><g clip-path="url(#5e0f82010a)"><g clip-path="url(#b1b50dfcb8)"><path fill="#ffd230" d="M 37.523438 11.507812 L 0.90625 11.507812 L 0.90625 0.105469 L 37.523438 0.105469 Z M 37.523438 11.507812 " fill-opacity="1" fill-rule="nonzero"/></g></g></g></g></g></g><g clip-path="url(#db1a6ba273)"><g clip-path="url(#5cffea4427)"><g transform="matrix(1, 0, 0, 1, 24, 27)"><g clip-path="url(#958d19e5fc)"><g clip-path="url(#ad7c675864)"><g clip-path="url(#2d0671a746)"><path fill="#ffd230" d="M 0.328125 0.449219 L 12.128906 0.449219 L 12.128906 12.25 L 0.328125 12.25 Z M 0.328125 0.449219 " fill-opacity="1" fill-rule="nonzero"/></g></g></g></g></g></g></g></g></g></svg>